<svg width="46" height="47" viewBox="0 0 46 47" fill="none" xmlns="http://www.w3.org/2000/svg">
<g id="fluent-mdl2:parking-location" clip-path="url(#clip0_1_115)">
<path id="Vector" d="M45.0688 24.329C45.5004 25.2814 45.7161 26.271 45.7161 27.2978V28.9049C45.7161 30.0359 45.4111 31.0701 44.801 32.0076C44.1909 32.9451 43.3724 33.6445 42.3456 34.1058C41.8843 35.1326 41.1849 35.951 40.2474 36.5612C39.3099 37.1713 38.2757 37.4763 37.1447 37.4763C36.1179 37.4763 35.1656 37.2234 34.2876 36.7174C33.4096 36.2115 32.7102 35.5121 32.1894 34.6192H16.3858C15.865 35.5121 15.1656 36.2115 14.2876 36.7174C13.4096 37.2234 12.4572 37.4763 11.4304 37.4763C10.4036 37.4763 9.45127 37.2234 8.57329 36.7174C7.69531 36.2115 6.99591 35.5121 6.47508 34.6192H2.859C2.45722 34.6192 2.08519 34.5448 1.74293 34.396C1.40067 34.2472 1.10305 34.0463 0.850074 33.7933C0.597098 33.5403 0.388765 33.2353 0.225074 32.8781C0.0613839 32.521 -0.0130208 32.149 0.00186012 31.7621V26.0478C0.00186012 24.8573 0.225074 23.7412 0.671503 22.6996C1.11793 21.6579 1.72805 20.7501 2.50186 19.9763C3.27567 19.2025 4.18341 18.5924 5.22507 18.146C6.26674 17.6996 7.38281 17.4763 8.57329 17.4763H9.39918L16.7206 10.1549C17.1224 9.75312 17.5837 9.44806 18.1045 9.23973C18.6254 9.0314 19.176 8.91979 19.7563 8.90491H40.0019V11.7621H39.3545L45.0688 24.329ZM28.5733 11.7621V17.4763H38.8188L36.609 12.5879C36.49 12.335 36.3114 12.1341 36.0733 11.9853C35.8352 11.8365 35.5748 11.7621 35.292 11.7621H28.5733ZM19.7563 11.7621C19.3694 11.7621 19.0346 11.9034 18.7519 12.1862L13.4617 17.4763H25.7162V11.7621H19.7563ZM11.4304 34.6192C11.8322 34.6192 12.2042 34.5448 12.5465 34.396C12.8888 34.2472 13.1864 34.0463 13.4394 33.7933C13.6923 33.5403 13.9007 33.2353 14.0644 32.8781C14.2281 32.521 14.3025 32.149 14.2876 31.7621C14.2876 31.3603 14.2132 30.9882 14.0644 30.646C13.9156 30.3037 13.7147 30.0061 13.4617 29.7531C13.2087 29.5001 12.9036 29.2918 12.5465 29.1281C12.1894 28.9644 11.8173 28.89 11.4304 28.9049C11.0286 28.9049 10.6566 28.9793 10.3144 29.1281C9.9721 29.2769 9.67448 29.4778 9.4215 29.7308C9.16853 29.9838 8.96019 30.2888 8.7965 30.646C8.63281 31.0031 8.55841 31.3751 8.57329 31.7621C8.57329 32.1638 8.64769 32.5359 8.7965 32.8781C8.94531 33.2204 9.14621 33.518 9.39918 33.771C9.65216 34.024 9.95722 34.2323 10.3144 34.396C10.6715 34.5597 11.0435 34.6341 11.4304 34.6192ZM11.4304 26.0478C12.2191 26.0478 12.9557 26.1966 13.6403 26.4942C14.3248 26.7918 14.9349 27.201 15.4706 27.7219C16.0063 28.2427 16.4156 28.8454 16.6983 29.5299C16.981 30.2144 17.1298 30.9585 17.1447 31.7621H25.7162V20.3335H8.57329C7.7846 20.3335 7.04799 20.4823 6.36347 20.7799C5.67894 21.0775 5.06882 21.4868 4.53311 22.0076C3.9974 22.5284 3.58817 23.1311 3.30543 23.8156C3.02269 24.5001 2.87388 25.2442 2.859 26.0478V31.7621H5.71615C5.71615 30.9734 5.86496 30.2368 6.16258 29.5522C6.46019 28.8677 6.86942 28.2576 7.39025 27.7219C7.91109 27.1862 8.51377 26.7769 9.19829 26.4942C9.88281 26.2115 10.6269 26.0626 11.4304 26.0478ZM37.1447 34.6192C37.5465 34.6192 37.9185 34.5448 38.2608 34.396C38.6031 34.2472 38.9007 34.0463 39.1537 33.7933C39.4066 33.5403 39.615 33.2353 39.7787 32.8781C39.9423 32.521 40.0167 32.149 40.0019 31.7621C40.0019 31.3603 39.9275 30.9882 39.7787 30.646C39.6298 30.3037 39.4289 30.0061 39.176 29.7531C38.923 29.5001 38.6179 29.2918 38.2608 29.1281C37.9037 28.9644 37.5316 28.89 37.1447 28.9049C36.7429 28.9049 36.3709 28.9793 36.0287 29.1281C35.6864 29.2769 35.3888 29.4778 35.1358 29.7308C34.8828 29.9838 34.6745 30.2888 34.5108 30.646C34.3471 31.0031 34.2727 31.3751 34.2876 31.7621C34.2876 32.1638 34.362 32.5359 34.5108 32.8781C34.6596 33.2204 34.8605 33.518 35.1135 33.771C35.3664 34.024 35.6715 34.2323 36.0287 34.396C36.3858 34.5597 36.7578 34.6341 37.1447 34.6192ZM42.859 27.2978C42.859 26.6876 42.7325 26.0924 42.4795 25.5121L40.1135 20.3335H28.5733V31.7621H31.4304C31.4304 30.9734 31.5792 30.2368 31.8769 29.5522C32.1745 28.8677 32.5837 28.2576 33.1045 27.7219C33.6254 27.1862 34.2281 26.7769 34.9126 26.4942C35.5971 26.2115 36.3412 26.0626 37.1447 26.0478C37.7697 26.0478 38.3724 26.1445 38.9528 26.3379C39.5331 26.5314 40.0614 26.8067 40.5376 27.1638C41.0138 27.521 41.4304 27.9451 41.7876 28.4362C42.1447 28.9272 42.42 29.4778 42.6135 30.0879C42.7772 29.6862 42.859 29.2918 42.859 28.9049V27.2978Z" fill="#FF803E"/>
</g>
<defs>
<clipPath id="clip0_1_115">
<rect width="45.7143" height="45.7143" fill="white" transform="translate(0 0.523926)"/>
</clipPath>
</defs>
</svg>
