<svg width="47" height="47" viewBox="0 0 47 47" fill="none" xmlns="http://www.w3.org/2000/svg">
<g id="mdi:map-marker-radius-outline">
<path id="Vector" d="M23.3809 8.1429C27.5714 8.1429 31 11.5715 31 15.7619C31 19.7619 27 26.2381 23.3809 30.8096C19.7619 26.0477 15.7619 19.7619 15.7619 15.7619C15.7619 11.5715 19.1904 8.1429 23.3809 8.1429ZM23.3809 4.33337C17.0952 4.33337 11.9523 9.47623 11.9523 15.7619C11.9523 24.3334 23.3809 36.7143 23.3809 36.7143C23.3809 36.7143 34.8095 24.1429 34.8095 15.7619C34.8095 9.47623 29.6666 4.33337 23.3809 4.33337ZM23.3809 11.9524C21.2857 11.9524 19.5714 13.6667 19.5714 15.7619C19.5714 17.8572 21.2857 19.5715 23.3809 19.5715C25.4762 19.5715 27.1904 17.8572 27.1904 15.7619C27.1904 13.6667 25.4762 11.9524 23.3809 11.9524ZM38.619 36.7143C38.619 40.9048 31.7619 44.3334 23.3809 44.3334C15 44.3334 8.14282 40.9048 8.14282 36.7143C8.14282 34.2381 10.4285 32.1429 14.0476 30.6191L15.1904 32.3334C13.2857 33.2858 11.9523 34.4286 11.9523 35.7619C11.9523 38.4286 17.0952 40.5238 23.3809 40.5238C29.6666 40.5238 34.8095 38.4286 34.8095 35.7619C34.8095 34.4286 33.4762 33.2858 31.3809 32.3334L32.5238 30.6191C36.3333 32.1429 38.619 34.2381 38.619 36.7143Z" fill="#FF803E"/>
</g>
</svg>
