<svg width="47" height="47" viewBox="0 0 47 47" fill="none" xmlns="http://www.w3.org/2000/svg">
<g id="mdi:clock-outline">
<path id="Vector" d="M23.381 38.6191C27.4224 38.6191 31.2983 37.0137 34.156 34.156C37.0137 31.2983 38.6191 27.4224 38.6191 23.381C38.6191 19.3396 37.0137 15.4637 34.156 12.606C31.2983 9.74834 27.4224 8.1429 23.381 8.1429C19.3396 8.1429 15.4637 9.74834 12.606 12.606C9.74834 15.4637 8.1429 19.3396 8.1429 23.381C8.1429 27.4224 9.74834 31.2983 12.606 34.156C15.4637 37.0137 19.3396 38.6191 23.381 38.6191ZM23.381 4.33337C25.8824 4.33337 28.3592 4.82606 30.6702 5.78329C32.9812 6.74052 35.081 8.14356 36.8497 9.91229C38.6184 11.681 40.0215 13.7808 40.9787 16.0918C41.9359 18.4027 42.4286 20.8796 42.4286 23.381C42.4286 28.4327 40.4218 33.2776 36.8497 36.8497C33.2776 40.4218 28.4327 42.4286 23.381 42.4286C12.8477 42.4286 4.33337 33.8572 4.33337 23.381C4.33337 18.3293 6.34017 13.4844 9.91229 9.91229C13.4844 6.34017 18.3293 4.33337 23.381 4.33337ZM24.3334 13.8572V23.8572L32.9048 28.9429L31.4762 31.2858L21.4762 25.2858V13.8572H24.3334Z" fill="#FF803E"/>
</g>
</svg>
