<svg width="47" height="47" viewBox="0 0 47 47" fill="none" xmlns="http://www.w3.org/2000/svg">
<g id="mingcute:light-line" clip-path="url(#clip0_1_134)">
<g id="Group">
<path id="Vector" fill-rule="evenodd" clip-rule="evenodd" d="M23.381 36.7143C23.8475 36.7144 24.2978 36.8857 24.6465 37.1957C24.9951 37.5057 25.2178 37.9329 25.2724 38.3962L25.2858 38.6191V40.5238C25.2852 41.0093 25.0993 41.4763 24.766 41.8293C24.4328 42.1823 23.9773 42.3948 23.4926 42.4232C23.008 42.4517 22.5307 42.294 22.1585 41.9824C21.7862 41.6708 21.5469 41.2288 21.4896 40.7467L21.4762 40.5238V38.6191C21.4762 38.1139 21.6769 37.6294 22.0341 37.2722C22.3913 36.915 22.8758 36.7143 23.381 36.7143ZM13.9524 32.8096C14.3095 33.1668 14.5101 33.6512 14.5101 34.1562C14.5101 34.6613 14.3095 35.1457 13.9524 35.5029L12.6058 36.8496C12.43 37.0315 12.2199 37.1766 11.9875 37.2764C11.7551 37.3763 11.5051 37.4288 11.2522 37.431C10.9993 37.4332 10.7485 37.385 10.5144 37.2892C10.2803 37.1935 10.0677 37.052 9.88881 36.8732C9.70997 36.6943 9.56853 36.4817 9.47276 36.2476C9.37699 36.0135 9.32879 35.7627 9.33099 35.5098C9.33319 35.2568 9.38574 35.0069 9.48556 34.7745C9.58539 34.5421 9.7305 34.3319 9.91242 34.1562L11.2591 32.8096C11.6163 32.4525 12.1007 32.2519 12.6058 32.2519C13.1108 32.2519 13.5952 32.4525 13.9524 32.8096ZM35.5029 32.8096L36.8496 34.1562C37.1965 34.5155 37.3885 34.9966 37.3842 35.496C37.3798 35.9955 37.1795 36.4732 36.8264 36.8264C36.4732 37.1795 35.9955 37.3798 35.496 37.3842C34.9966 37.3885 34.5155 37.1965 34.1562 36.8496L32.8096 35.5029C32.4626 35.1437 32.2706 34.6625 32.275 34.1631C32.2793 33.6637 32.4796 33.1859 32.8328 32.8328C33.1859 32.4796 33.6637 32.2793 34.1631 32.275C34.6625 32.2706 35.1437 32.4626 35.5029 32.8096ZM24.5562 4.33337C25.4849 4.33317 26.3817 4.67221 27.078 5.28675C27.7742 5.90129 28.222 6.749 28.3372 7.67052L29.061 13.461C31.247 14.713 32.9581 16.6523 33.9282 18.9772C34.8983 21.3022 35.0731 23.8825 34.4252 26.317C33.7774 28.7515 32.3434 30.9037 30.3461 32.439C28.3488 33.9743 25.9002 34.8067 23.381 34.8067C20.8618 34.8067 18.4132 33.9743 16.4159 32.439C14.4186 30.9037 12.9845 28.7515 12.3367 26.317C11.6889 23.8825 11.8637 21.3022 12.8338 18.9772C13.8039 16.6523 15.5149 14.713 17.701 13.461L18.4248 7.67052C18.54 6.749 18.9878 5.90129 19.684 5.28675C20.3803 4.67221 21.2771 4.33317 22.2058 4.33337H24.5562ZM23.381 15.7619C21.3603 15.7619 19.4224 16.5647 17.9935 17.9935C16.5647 19.4224 15.7619 21.3603 15.7619 23.381C15.7619 25.4017 16.5647 27.3396 17.9935 28.7685C19.4224 30.1973 21.3603 31 23.381 31C25.4017 31 27.3396 30.1973 28.7685 28.7685C30.1973 27.3396 31 25.4017 31 23.381C31 21.3603 30.1973 19.4224 28.7685 17.9935C27.3396 16.5647 25.4017 15.7619 23.381 15.7619ZM8.1429 21.4762C8.64807 21.4762 9.13256 21.6769 9.48977 22.0341C9.84698 22.3913 10.0477 22.8758 10.0477 23.381C10.0477 23.8862 9.84698 24.3707 9.48977 24.7279C9.13256 25.0851 8.64807 25.2858 8.1429 25.2858H6.23814C5.73296 25.2858 5.24848 25.0851 4.89127 24.7279C4.53405 24.3707 4.33337 23.8862 4.33337 23.381C4.33337 22.8758 4.53405 22.3913 4.89127 22.0341C5.24848 21.6769 5.73296 21.4762 6.23814 21.4762H8.1429ZM40.5238 21.4762C41.029 21.4762 41.5135 21.6769 41.8707 22.0341C42.2279 22.3913 42.4286 22.8758 42.4286 23.381C42.4286 23.8862 42.2279 24.3707 41.8707 24.7279C41.5135 25.0851 41.029 25.2858 40.5238 25.2858H38.6191C38.1139 25.2858 37.6294 25.0851 37.2722 24.7279C36.915 24.3707 36.7143 23.8862 36.7143 23.381C36.7143 22.8758 36.915 22.3913 37.2722 22.0341C37.6294 21.6769 38.1139 21.4762 38.6191 21.4762H40.5238ZM36.8496 9.91433C37.2066 10.2715 37.4073 10.7559 37.4073 11.261C37.4073 11.7661 37.2066 12.2505 36.8496 12.6077L35.5029 13.9543C35.3272 14.1363 35.117 14.2814 34.8846 14.3812C34.6522 14.481 34.4023 14.5336 34.1494 14.5358C33.8965 14.538 33.6456 14.4898 33.4116 14.394C33.1775 14.2982 32.9648 14.1568 32.786 13.9779C32.6071 13.7991 32.4657 13.5864 32.3699 13.3523C32.2741 13.1182 32.2259 12.8674 32.2281 12.6145C32.2303 12.3616 32.2829 12.1117 32.3827 11.8793C32.4825 11.6469 32.6276 11.4367 32.8096 11.261L34.1562 9.91433C34.5134 9.55724 34.9978 9.35664 35.5029 9.35664C36.008 9.35664 36.4924 9.55724 36.8496 9.91433ZM12.6058 9.91433L13.9524 11.261C14.2908 11.6219 14.4755 12.1002 14.4675 12.5948C14.4595 13.0895 14.2593 13.5616 13.9094 13.9113C13.5595 14.2609 13.0872 14.4608 12.5926 14.4684C12.0979 14.4761 11.6197 14.2911 11.2591 13.9524L9.91242 12.6058C9.57403 12.2449 9.38931 11.7665 9.39734 11.2719C9.40537 10.7773 9.60553 10.3052 9.95546 9.95549C10.3054 9.60581 10.7776 9.40598 11.2723 9.3983C11.7669 9.39062 12.2451 9.57568 12.6058 9.91433ZM24.5562 8.1429H22.2058L21.7296 11.9524H25.0324L24.5562 8.1429Z" fill="#FE6312"/>
</g>
</g>
<defs>
<clipPath id="clip0_1_134">
<rect width="45.7143" height="45.7143" fill="white" transform="translate(0.523926 0.523926)"/>
</clipPath>
</defs>
</svg>
