<svg width="47" height="47" viewBox="0 0 47 47" fill="none" xmlns="http://www.w3.org/2000/svg">
<g id="mingcute:safety-certificate-line" clip-path="url(#clip0_1_124)">
<g id="Group">
<path id="Vector" d="M22.2819 4.7047C23.0335 4.42346 23.8548 4.3868 24.6285 4.59993L24.9562 4.7047L38.2895 9.7047C38.9655 9.9582 39.5556 10.3986 39.991 10.9746C40.4264 11.5506 40.6891 12.2385 40.7485 12.958L40.7619 13.2723V23.4876C40.7618 26.5741 39.9284 29.6033 38.3497 32.2555C36.771 34.9077 34.5055 37.0845 31.7923 38.5561L31.2857 38.8209L24.8971 42.0152C24.5453 42.1908 24.1611 42.2919 23.7685 42.3123C23.3758 42.3326 22.9832 42.2716 22.6152 42.1333L22.3409 42.0152L15.9523 38.8209C13.1916 37.4405 10.8548 35.3403 9.18854 32.7421C7.52231 30.1438 6.58849 27.1439 6.48567 24.059L6.47615 23.4876V13.2723C6.47616 12.5507 6.68115 11.8438 7.06726 11.2342C7.45337 10.6245 8.00471 10.137 8.6571 9.82851L8.94853 9.7047L22.2819 4.7047ZM23.619 8.27231L10.2857 13.2723V23.4876C10.2857 25.878 10.9284 28.2246 12.1465 30.2814C13.3646 32.3383 15.1133 34.0298 17.2095 35.179L17.6571 35.4133L23.619 38.3942L29.5809 35.4133C31.7194 34.3442 33.5312 32.7198 34.8264 30.7101C36.1216 28.7005 36.8526 26.3796 36.9428 23.9904L36.9523 23.4876V13.2723L23.619 8.27231ZM30.1581 16.9599C30.5008 16.6183 30.9608 16.42 31.4445 16.4052C31.9282 16.3904 32.3994 16.5603 32.7624 16.8804C33.1254 17.2005 33.3529 17.6467 33.3988 18.1285C33.4447 18.6102 33.3055 19.0914 33.0095 19.4742L32.8514 19.6533L22.8819 29.6247C22.5187 29.9878 22.0349 30.2049 21.5222 30.2347C21.0095 30.2646 20.5037 30.1051 20.1009 29.7866L19.9181 29.6247L15.339 25.0456C14.9938 24.7037 14.7923 24.2427 14.7758 23.757C14.7593 23.2713 14.9291 22.7977 15.2504 22.4331C15.5716 22.0685 16.0201 21.8405 16.504 21.7957C16.9879 21.751 17.4706 21.8928 17.8533 22.1923L18.0323 22.3504L21.4 25.718L30.1581 16.9599Z" fill="#FF803E"/>
</g>
</g>
<defs>
<clipPath id="clip0_1_124">
<rect width="45.7143" height="45.7143" fill="white" transform="translate(0.761871 0.523926)"/>
</clipPath>
</defs>
</svg>
