<svg width="47" height="47" viewBox="0 0 47 47" fill="none" xmlns="http://www.w3.org/2000/svg">
<g id="svg-spinners:wifi">
<path id="Vector" d="M23.3809 40.524L30.2381 31.3812C28.3333 29.9526 25.9524 29.0955 23.3809 29.0955C20.8095 29.0955 18.4286 29.9526 16.5238 31.3812L23.3809 40.524Z" fill="#FF803E"/>
<path id="Vector_2" d="M23.3809 17.6666C18.2381 17.6666 13.4952 19.3619 9.66666 22.2381L13.0952 26.8095C15.9524 24.6571 19.5143 23.3809 23.3809 23.3809C27.2476 23.3809 30.8095 24.6571 33.6667 26.8095L37.0952 22.2381C33.2667 19.3619 28.5238 17.6666 23.3809 17.6666Z" fill="#FF803E"/>
<path id="Vector_3" d="M23.3809 6.23828C15.6667 6.23828 8.54284 8.79066 2.80951 13.0954L6.23808 17.6669C11 14.0859 16.9428 11.9526 23.3809 11.9526C29.819 11.9526 35.7619 14.0859 40.5238 17.6669L43.9524 13.0954C38.219 8.79066 31.0952 6.23828 23.3809 6.23828Z" fill="#FF803E"/>
</g>
</svg>
