<svg width="24" height="24" viewBox="0 0 24 24" fill="none" xmlns="http://www.w3.org/2000/svg">
<g id="Copyright">
<path id="Vector" d="M9.79238 10.86C9.84095 10.53 9.94781 10.24 10.0838 9.99C10.2198 9.74 10.4141 9.53 10.657 9.37C10.8901 9.22 11.1816 9.15 11.541 9.14C11.7645 9.15 11.9685 9.19 12.153 9.27C12.3473 9.36 12.5222 9.48 12.6582 9.63C12.7942 9.78 12.9011 9.96 12.9885 10.16C13.0759 10.36 13.1148 10.58 13.1245 10.8H14.8634C14.844 10.33 14.7566 9.9 14.5914 9.51C14.4263 9.12 14.2028 8.78 13.9114 8.5C13.62 8.22 13.2702 8 12.8622 7.84C12.4542 7.68 12.0073 7.61 11.5119 7.61C10.8804 7.61 10.3267 7.72 9.86038 7.95C9.39408 8.18 9.00549 8.48 8.69462 8.87C8.38375 9.26 8.1506 9.71 8.00488 10.23C7.85916 10.75 7.77173 11.29 7.77173 11.87V12.14C7.77173 12.72 7.84945 13.26 7.99516 13.78C8.14088 14.3 8.37404 14.75 8.68491 15.13C8.99578 15.51 9.38436 15.82 9.85067 16.04C10.317 16.26 10.8707 16.38 11.5022 16.38C11.9587 16.38 12.3862 16.3 12.7845 16.15C13.1828 16 13.5325 15.79 13.8337 15.52C14.1348 15.25 14.3777 14.94 14.5526 14.58C14.7274 14.22 14.8343 13.84 14.844 13.43H13.1051C13.0954 13.64 13.0468 13.83 12.9594 14.01C12.8719 14.19 12.7553 14.34 12.6096 14.47C12.4639 14.6 12.2988 14.7 12.1045 14.77C11.9199 14.84 11.7256 14.86 11.5216 14.87C11.1719 14.86 10.8804 14.79 10.657 14.64C10.4141 14.48 10.2198 14.27 10.0838 14.02C9.94781 13.77 9.84095 13.47 9.79238 13.14C9.7438 12.81 9.71466 12.47 9.71466 12.14V11.87C9.71466 11.52 9.7438 11.19 9.79238 10.86ZM11.6576 2C6.2951 2 1.94293 6.48 1.94293 12C1.94293 17.52 6.2951 22 11.6576 22C17.0201 22 21.3723 17.52 21.3723 12C21.3723 6.48 17.0201 2 11.6576 2ZM11.6576 20C7.37343 20 3.88586 16.41 3.88586 12C3.88586 7.59 7.37343 4 11.6576 4C15.9418 4 19.4293 7.59 19.4293 12C19.4293 16.41 15.9418 20 11.6576 20Z" fill="#252626"/>
</g>
</svg>
